<svg width="64" height="64" viewBox="0 0 64 64" fill="none" xmlns="http://www.w3.org/2000/svg">
<path d="M42.6667 29.3333V21.3333H34.6667V16H42.6667V8H48V16H56V21.3333H48V29.3333H42.6667ZM53.2 56C47.6444 56 42.144 54.8 36.6987 52.4C31.2533 50 26.3093 46.5778 21.8667 42.1333C17.4222 37.6889 14 32.7556 11.6 27.3333C9.2 21.9111 8 16.4 8 10.8V8H23.7333L26.2 21.4L18.6 29.0667C19.5778 30.8 20.6667 32.4444 21.8667 34C23.0667 35.5556 24.3556 37 25.7333 38.3333C27.0222 39.6222 28.4338 40.856 29.968 42.0347C31.5022 43.2133 33.1573 44.3129 34.9333 45.3333L42.6667 37.6L56 40.3333V56H53.2Z" fill="#00D2D2"/>
</svg>
