<svg width="70" height="71" viewBox="0 0 70 71" fill="none" xmlns="http://www.w3.org/2000/svg">
<path d="M7.26794 19.4511L10.3471 21.2289M50.9808 7.73828L49.203 10.8175M59.6144 49.6733L62.6936 51.4511M26.6516 4.36643L27.5626 7.76631M66.0654 27.122L62.6655 28.033M19.0097 46.7582L33.174 54.936M18.632 42.4346C17.1663 39.0033 16.8174 35.1978 17.6347 31.5571C18.452 27.9165 20.394 24.6253 23.1857 22.1497C25.9775 19.6741 29.4773 18.1397 33.1896 17.7638C36.9019 17.3878 40.6383 18.1895 43.8696 20.0551C47.101 21.9207 49.6634 24.7558 51.194 28.1586C52.7246 31.5615 53.1456 35.3597 52.3976 39.0152C51.6496 42.6707 49.7703 45.9981 47.0261 48.5262C44.2818 51.0544 40.8117 52.6549 37.1072 53.1012C35.218 53.5972 33.4719 54.5309 32.0105 55.8269C30.549 57.1229 29.4131 58.7446 28.6947 60.5611C27.7517 62.1944 26.1985 63.3862 24.3768 63.8743C22.5551 64.3624 20.6141 64.1069 18.9808 63.1639C17.3474 62.2209 16.1556 60.6677 15.6675 58.846C15.1794 57.0243 15.4349 55.0833 16.3779 53.4499C17.5918 51.9196 18.4284 50.125 18.82 48.2113C19.2116 46.2977 19.1472 44.3187 18.632 42.4346Z" stroke="#00D2D2" stroke-width="4" stroke-linecap="round" stroke-linejoin="round"/>
</svg>
