<svg width="61" height="65" viewBox="0 0 61 65" fill="none" xmlns="http://www.w3.org/2000/svg">
<path d="M47.9252 34.8858L50.5913 44.8356L46.2382 46.002L43.5722 36.0522C42.6547 36.0481 41.7258 35.9499 40.7855 35.7575C39.8453 35.565 38.9316 35.2128 38.0446 34.7006C35.5805 33.278 33.9845 31.2063 33.2566 28.4853C32.5286 25.7644 32.8749 23.1722 34.2955 20.7087C35.7181 18.2447 37.7902 16.648 40.5119 15.9187C43.2336 15.1894 45.8254 15.5364 48.2874 16.9596C50.7514 18.3822 52.3481 20.4543 53.0774 23.176C53.8066 25.8977 53.4597 28.4895 52.0365 30.9515C51.5244 31.8386 50.9093 32.6005 50.1912 33.2372C49.4731 33.874 48.7178 34.4235 47.9252 34.8858ZM40.3208 30.7582C41.7006 31.5548 43.142 31.7518 44.6448 31.3491C46.1476 30.9465 47.2974 30.0552 48.0941 28.6753C48.8907 27.2955 49.0877 25.8541 48.685 24.3513C48.2823 22.8484 47.3911 21.6987 46.0112 20.902C44.6314 20.1054 43.19 19.9084 41.6872 20.3111C40.1843 20.7137 39.0346 21.605 38.2379 22.9849C37.4412 24.3647 37.2443 25.8061 37.6469 27.3089C38.0496 28.8118 38.9409 29.9615 40.3208 30.7582ZM39.9537 40.271L42.0782 48.1998L36.6723 57.5631C36.0464 58.6473 35.124 59.3527 33.9051 59.6793C32.6862 60.0059 31.5358 59.8559 30.4537 59.2294L2.85644 43.2961C1.77226 42.6702 1.06688 41.7478 0.740285 40.5289C0.413694 39.3101 0.563653 38.1596 1.19016 37.0775L17.1234 9.48026C17.7494 8.39609 18.6718 7.6907 19.8906 7.36411C21.1095 7.03752 22.26 7.18748 23.3421 7.81398L34.1838 14.0735C33.3482 14.6862 32.6132 15.3902 31.9788 16.1856C31.3443 16.9811 30.7809 17.8052 30.2885 18.6581C28.2209 22.2392 27.7597 25.9591 28.9048 29.818C30.0498 33.6769 32.3636 36.6116 35.8461 38.6223C36.4704 38.9827 37.1185 39.3017 37.7905 39.5793C38.4625 39.8569 39.1836 40.0874 39.9537 40.271Z" fill="#00D2D2"/>
</svg>
