<svg width="64" height="52" viewBox="0 0 64 52" fill="none" xmlns="http://www.w3.org/2000/svg">
<path d="M61.5619 0.473145L42.0577 0.473145C40.7184 0.473145 38.8427 1.25006 37.8968 2.19602L13.7148 26.378C13.2588 26.8361 13.0028 27.4562 13.0028 28.1025C13.0028 28.7489 13.2588 29.3689 13.7148 29.827L34.6461 50.7584C35.1042 51.2143 35.7242 51.4703 36.3706 51.4703C37.0169 51.4703 37.637 51.2143 38.0951 50.7584L62.2771 26.5763C63.2263 25.6271 64 23.7547 64 22.4154V2.91118C63.9983 2.2651 63.7408 1.64597 63.284 1.18912C62.8271 0.732275 62.208 0.474861 61.5619 0.473145ZM49.3718 19.9774C48.7312 19.9772 48.097 19.8508 47.5053 19.6055C46.9136 19.3602 46.376 19.0007 45.9232 18.5476C45.4704 18.0945 45.1113 17.5567 44.8664 16.9648C44.6215 16.3729 44.4955 15.7386 44.4957 15.0981C44.4959 14.4575 44.6223 13.8233 44.8676 13.2316C45.113 12.6399 45.4724 12.1023 45.9255 11.6495C46.3786 11.1967 46.9164 10.8376 47.5083 10.5927C48.1002 10.3478 48.7345 10.2218 49.375 10.222C50.6687 10.2225 51.9092 10.7368 52.8236 11.6518C53.738 12.5669 54.2515 13.8077 54.2511 15.1013C54.2507 16.395 53.7364 17.6355 52.8213 18.5499C51.9063 19.4643 50.6654 19.9778 49.3718 19.9774Z" fill="#00D2D2"/>
<path d="M5.48724 28.1042L33.1183 0.473145L29.0549 0.473145C27.7156 0.473145 25.8399 1.25006 24.894 2.19602L0.711952 26.378C0.255982 26.8361 0 27.4562 0 28.1025C0 28.7489 0.255982 29.3689 0.711952 29.827L21.6433 50.7584C22.1014 51.2143 22.7214 51.4703 23.3678 51.4703C24.0141 51.4703 24.6342 51.2143 25.0923 50.7584L26.6201 49.2305L5.49049 28.1009L5.48724 28.1042Z" fill="#00D2D2"/>
</svg>
