<svg width="64" height="52" viewBox="0 0 64 52" fill="none" xmlns="http://www.w3.org/2000/svg">
<path d="M19.7659 25.2757C23.0111 25.2757 26.1233 23.9866 28.418 21.6919C30.7127 19.3972 32.0019 16.2849 32.0019 13.0397C32.0019 9.79453 30.7127 6.68225 28.418 4.38756C26.1233 2.09286 23.0111 0.803711 19.7659 0.803711C16.5207 0.803711 13.4084 2.09286 11.1137 4.38756C8.819 6.68225 7.52985 9.79453 7.52985 13.0397C7.52985 16.2849 8.819 19.3972 11.1137 21.6919C13.4084 23.9866 16.5207 25.2757 19.7659 25.2757ZM41.177 44.6463C43.1724 45.4633 45.71 45.9828 48.9403 45.9828C64 45.9828 64 34.6881 64 34.6881C64 33.1909 63.4055 31.7551 62.3472 30.6961C61.289 29.6371 59.8535 29.0417 58.3564 29.0407H40.9323C42.4119 30.8328 43.3004 33.1256 43.3004 35.6293V36.9696C43.2927 37.2866 43.2714 37.6032 43.2364 37.9184C42.9824 40.2707 42.2811 42.5536 41.177 44.6463ZM58.3564 15.8634C58.3564 18.3597 57.3647 20.7538 55.5996 22.5189C53.8344 24.2841 51.4404 25.2757 48.9441 25.2757C46.4478 25.2757 44.0537 24.2841 42.2885 22.5189C40.5234 20.7538 39.5317 18.3597 39.5317 15.8634C39.5317 13.3671 40.5234 10.9731 42.2885 9.20791C44.0537 7.44275 46.4478 6.4511 48.9441 6.4511C51.4404 6.4511 53.8344 7.44275 55.5996 9.20791C57.3647 10.9731 58.3564 13.3671 58.3564 15.8634ZM0 36.5705C0 34.5735 0.793321 32.6582 2.20544 31.2461C3.61756 29.834 5.53281 29.0407 7.52985 29.0407L32.0019 29.0407C33.9989 29.0407 35.9142 29.834 37.3263 31.2461C38.7384 32.6582 39.5317 34.5735 39.5317 36.5705C39.5317 36.5705 39.5317 51.6302 19.7659 51.6302C0 51.6302 0 36.5705 0 36.5705Z" fill="#00D2D2"/>
</svg>
